<mxfile host="app.diagrams.net" modified="2024-05-15T10:43:16.634Z" agent="Mozilla/5.0 (Windows NT 10.0; Win64; x64) AppleWebKit/537.36 (KHTML, like Gecko) Chrome/124.0.0.0 Safari/537.36" version="24.4.0" etag="1hyHt-Nh4z_n8w2E3gja" type="gitlab">
  <diagram name="Page-1" id="doSzKeyZ4UQCpUlEeomV">
    <mxGraphModel>
      <root>
        <mxCell id="0" />
        <mxCell id="1" parent="0" />
      </root>
    </mxGraphModel>
  </diagram>
</mxfile>
